_________________________  Visit us at _________________________
  
http://tinym.eu  ____________________________  http://p2pdl.com


Extracted 2012 DVDRip 350MB x264 AAC - ViZNU [P2PDL]

					
Genre:  Drama | Sci-Fi 
Plot: A scientist who has invented a technique to watch people's memories finds himself in a dangerous
situation after he's tasked with entering a heroin addict's mind to see whether the man committed murder.    
Director: Nir Paniry
Stars: Sasha Roiz, Jenny Mollen and Dominic Bogart. 
http://cinemahouse.in/movie/230/Extracted


General
Movie name                     : Extracted 2012
Format                         : MPEG-4
Format profile                 : Base Media
Codec ID                       : isom
File size                      : 352 MiB
Duration                       : 1h 25mn
Overall bit rate mode          : Variable
Overall bit rate               : 578 Kbps
Source                         :

Video
ID                             : 1
Format                         : AVC
Format/Info                    : Advanced Video Codec
Codec ID                       : avc1
Codec ID/Info                  : Advanced Video Coding
Duration                       : 1h 25mn
Bit rate                       : 535 Kbps
Maximum bit rate               : 4 791 Kbps
Width                          : 720 pixels
Height                         : 304 pixels
Display aspect ratio           : 2.35:1
Frame rate mode                : Constant
Frame rate                     : 25.000 fps
Stream size                    : 326 MiB (92%)
Writing library                : x264 core 125 r2208 d9d2288


Audio
ID                             : 2
Format                         : AAC
Format/Info                    : Advanced Audio Codec
Format profile                 : HE-AAC / LC
Codec ID                       : 40
Duration                       : 1h 25mn
Bit rate mode                  : Variable
Bit rate                       : 40.0 Kbps
Maximum bit rate               : 51.0 Kbps
Channel(s)                     : 2 channels
Channel positions              : Front: L R
Sampling rate                  : 44.1 KHz / 22.05 KHz
Stream size                    : 24.4 MiB (7%)
Language                       : English




Screens:
 
http://www.shotpix.com/images/26463120558870647594.png 
http://www.shotpix.com/images/05856076286502827697.png 
http://www.shotpix.com/images/84729607972620490348.png 
http://www.shotpix.com/images/91071032165923423149.png 
http://www.shotpix.com/images/03790962622614687299.png 
http://www.shotpix.com/images/06367433753740252928.png


----------------------------------------------------------------------------------------------------


Recommend to you to use latest version of VLC player. Install K-Lite Codec Pack or shark007 codecs
in case of any kind of problem in playback (For non-VLC Media Player users). Alternatively, install
Core AVC codecs, the fastest decoder that there is coupled with Community Center Codec Pack and play
on Windows Media Player Classic. Check sample to be sure.
Enjoy!


Greets to: Vitamin_X, a2zRG, srkfan, staff members at ExtraTorrent, TPB,KAT, 1337x, PublicHD,
Ahashare, BTScene, TorrentMafia, P2PDL, and all others.


Encoder Notes: Looking For Early Access To Anything You Can Provide DVDScr, R5, DVDR, BluRay, Direct
Audio, Early Music Releases, Seedboxes, Dedicated Servers anything u can provide, Advance / Promo CDs/
DVDs. If You Got anything to offer contact me at "prg@hush.com".


Facebook Fan Page: www . facebook . com / p2pdl
